<svg xmlns="http://www.w3.org/2000/svg" width="500" height="500" viewBox="0 0 500 500" version="1.1">
	<path d="M 0 250.002 L 0 500.004 250.250 499.752 L 500.500 499.500 500.752 249.750 L 501.004 0 250.502 0 L 0 0 0 250.002 M 0.492 250.500 C 0.492 388, 0.608 444.101, 0.750 375.170 C 0.892 306.238, 0.892 193.738, 0.750 125.170 C 0.608 56.601, 0.492 113, 0.492 250.500 M 294.493 84.757 C 292.839 85.812, 287.537 90.334, 282.710 94.805 C 256.868 118.746, 238.385 144.029, 244.128 147.579 C 244.749 147.963, 254.087 149.537, 264.878 151.077 C 275.670 152.617, 287.875 154.363, 292 154.955 C 317.341 158.596, 335.362 161, 337.319 161 C 338.700 161, 341.357 159.156, 344.165 156.250 C 349.335 150.899, 370.425 125.315, 376.449 117.085 C 378.620 114.119, 380.570 112.210, 380.781 112.844 C 381.371 114.614, 356.111 146.718, 344.750 158.636 C 341.323 162.231, 340.956 163.048, 341.939 164.886 C 342.561 166.049, 343.402 167, 343.807 167 C 347.319 167, 375.547 133.402, 385.663 117.181 C 388.174 113.156, 391.731 107.628, 393.569 104.897 C 397.465 99.108, 397.300 98.128, 391.439 92.250 C 388.151 88.953, 386.449 87.997, 383.850 87.985 C 382.008 87.976, 368.800 87.082, 354.500 85.996 C 340.200 84.911, 321.525 83.757, 313 83.431 C 298.837 82.890, 297.241 83.004, 294.493 84.757 M 346.250 83.689 C 347.212 83.941, 348.788 83.941, 349.750 83.689 C 350.712 83.438, 349.925 83.232, 348 83.232 C 346.075 83.232, 345.288 83.438, 346.250 83.689 M 234.833 153.906 C 234.496 154.823, 229.138 155.445, 169.160 161.525 C 150.212 163.446, 135.211 165.410, 134.410 166.075 C 132.595 167.581, 132.472 179.961, 134.250 182.174 C 134.958 183.056, 138.495 184.204, 142.405 184.820 C 146.203 185.420, 149.622 186.268, 150.003 186.705 C 150.384 187.142, 151.903 202.350, 153.379 220.500 C 154.855 238.650, 156.956 263.850, 158.047 276.500 C 159.139 289.150, 160.867 309.175, 161.889 321 C 162.910 332.825, 163.466 342.611, 163.123 342.748 C 162.234 343.101, 162.991 362.369, 163.918 362.987 C 164.341 363.269, 165.231 369.529, 165.895 376.898 C 166.559 384.267, 167.733 391.516, 168.504 393.007 C 170.358 396.593, 172.101 397.215, 211.500 408.349 C 243.299 417.336, 243.657 417.372, 263.073 413.561 C 291.605 407.962, 302.910 406, 306.649 406 C 309.510 406, 311.786 405.132, 314.866 402.867 C 318.838 399.946, 319.542 399.771, 325.244 400.288 C 331.075 400.817, 341.486 399.434, 350.500 396.933 C 352.700 396.323, 362.150 395.468, 371.500 395.034 C 385.046 394.404, 389.417 393.840, 393.014 392.258 C 398.864 389.686, 400.345 387.848, 399.536 384.165 C 399.136 382.344, 399.636 379.040, 400.868 375.374 C 404.128 365.664, 405.423 350.616, 403.999 338.992 C 402.472 326.527, 400.089 321.331, 387.475 302.964 C 369.647 277.004, 367.578 268.952, 375.666 257 L 378.034 253.500 371.483 252.751 C 363.793 251.871, 360.107 249.786, 359.324 245.871 C 358.660 242.549, 357.465 241.442, 353.839 240.790 L 351.178 240.311 351.723 247.521 C 352.394 256.393, 351.673 257.310, 340.410 261.912 C 333.829 264.601, 329.213 266.721, 316.679 272.815 C 316.227 273.034, 316.129 269.903, 316.460 265.857 C 317.265 256.032, 318.863 237.798, 319.997 225.500 C 320.504 220, 321.460 209.545, 322.121 202.266 C 323.444 187.696, 322.873 188.626, 331.218 187.448 C 333.813 187.082, 336.357 186.269, 336.873 185.641 C 337.389 185.014, 337.968 180.796, 338.160 176.270 C 338.603 165.799, 341.174 167.052, 312 163.514 C 305.675 162.747, 294.875 161.406, 288 160.535 C 281.125 159.664, 268.075 158.016, 259 156.873 C 249.925 155.730, 242.072 154.391, 241.550 153.897 C 240.312 152.728, 235.264 152.735, 234.833 153.906 M 218.269 154.693 C 219.242 154.947, 220.592 154.930, 221.269 154.656 C 221.946 154.382, 221.150 154.175, 219.500 154.195 C 217.850 154.215, 217.296 154.439, 218.269 154.693 M 139.550 167.881 C 140.072 168.365, 145.450 169.475, 151.500 170.346 C 157.550 171.218, 171.725 173.297, 183 174.968 C 255.704 185.738, 244.208 185.262, 280.364 178.999 C 293.089 176.795, 307.775 174.242, 313 173.327 C 318.225 172.411, 322.927 171.288, 323.450 170.831 C 324.930 169.536, 322.296 169.798, 306.522 172.513 C 294.517 174.579, 290.818 174.860, 285.711 174.094 C 282.295 173.582, 275.900 172.858, 271.500 172.486 C 267.100 172.113, 258.922 171.214, 253.326 170.487 C 244.879 169.389, 241.145 169.390, 231.326 170.494 C 193.707 174.725, 193.834 174.727, 156.500 169.030 C 142.028 166.821, 138.122 166.557, 139.550 167.881 M 131.195 177.500 C 131.215 179.150, 131.439 179.704, 131.693 178.731 C 131.947 177.758, 131.930 176.408, 131.656 175.731 C 131.382 175.054, 131.175 175.850, 131.195 177.500 M 150.079 210.583 C 150.127 211.748, 150.364 211.985, 150.683 211.188 C 150.972 210.466, 150.936 209.603, 150.604 209.271 C 150.272 208.939, 150.036 209.529, 150.079 210.583 M 243.653 286.750 C 242.682 322.035, 242.841 415.572, 243.870 414.455 C 245.047 413.178, 246.366 263, 245.200 263 C 244.709 263, 244.013 273.688, 243.653 286.750 M 155.079 270.583 C 155.127 271.748, 155.364 271.985, 155.683 271.188 C 155.972 270.466, 155.936 269.603, 155.604 269.271 C 155.272 268.939, 155.036 269.529, 155.079 270.583 M 158.079 308.583 C 158.127 309.748, 158.364 309.985, 158.683 309.188 C 158.972 308.466, 158.936 307.603, 158.604 307.271 C 158.272 306.939, 158.036 307.529, 158.079 308.583 M 159.195 315.500 C 159.215 317.150, 159.439 317.704, 159.693 316.731 C 159.947 315.758, 159.930 314.408, 159.656 313.731 C 159.382 313.054, 159.175 313.850, 159.195 315.500" stroke="none" fill="black" fill-rule="evenodd"/>
</svg>